<?xml version="1.0" standalone="no"?>
<!DOCTYPE svg PUBLIC "-//W3C//DTD SVG 20010904//EN"
 "http://www.w3.org/TR/2001/REC-SVG-20010904/DTD/svg10.dtd">
<svg version="1.0" xmlns="http://www.w3.org/2000/svg"
 width="256.000000pt" height="256.000000pt" viewBox="0 0 256.000000 256.000000"
 preserveAspectRatio="xMidYMid meet">
<metadata>
Created by potrace 1.14, written by Peter Selinger 2001-2017
</metadata>
<g transform="translate(0.000000,256.000000) scale(0.100000,-0.100000)"
fill="#000000" stroke="none">
<path d="M0 2495 l0 -65 1280 0 1280 0 0 65 0 65 -1280 0 -1280 0 0 -65z"/>
<path d="M130 2280 c0 -28 3 -30 35 -30 l35 0 0 -195 0 -195 30 0 30 0 0 195
0 195 35 0 c32 0 35 2 35 30 l0 30 -100 0 -100 0 0 -30z"/>
<path d="M370 2085 l0 -225 30 0 30 0 0 105 0 105 40 0 40 0 0 -105 0 -105 30
0 30 0 0 225 0 225 -30 0 -30 0 0 -95 0 -95 -40 0 -40 0 0 95 0 95 -30 0 -30
0 0 -225z"/>
<path d="M630 2085 l0 -225 90 0 90 0 0 30 0 30 -60 0 -60 0 0 65 0 65 55 0
c54 0 55 0 55 30 0 30 -1 30 -55 30 l-55 0 0 70 0 70 60 0 60 0 0 30 0 30 -90
0 -90 0 0 -225z"/>
<path d="M272 1327 c-35 -155 -63 -285 -62 -289 0 -5 15 -8 34 -8 l34 0 12 70
12 70 63 0 c70 0 66 4 80 -92 7 -48 8 -48 45 -48 l38 0 -9 38 c-4 20 -34 151
-65 290 l-57 252 -31 0 -31 0 -63 -283z m119 21 c26 -100 26 -98 -26 -98 -49
0 -51 3 -36 60 6 19 15 55 21 79 6 23 14 41 16 38 3 -3 14 -38 25 -79z"/>
<path d="M570 1320 l0 -290 30 0 30 0 0 170 c0 95 4 170 9 170 5 0 40 -76 77
-170 l68 -170 38 0 38 0 0 290 0 290 -35 0 -35 0 0 -201 c0 -119 -4 -198 -9
-194 -5 3 -31 69 -57 148 -84 254 -80 247 -120 247 l-34 0 0 -290z"/>
<path d="M1000 1593 c-53 -27 -82 -92 -78 -170 5 -77 20 -95 114 -139 76 -35
84 -45 84 -100 0 -39 -29 -74 -60 -74 -29 0 -70 44 -70 75 0 23 -4 25 -40 25
-45 0 -44 1 -29 -69 25 -117 174 -161 241 -70 29 39 44 144 27 194 -13 36 -22
44 -101 83 l-88 44 0 45 c0 63 13 83 55 83 39 0 65 -28 65 -72 0 -26 3 -28 40
-28 39 0 40 1 40 33 -1 44 -33 112 -64 132 -39 26 -95 29 -136 8z"/>
<path d="M1240 1595 c0 -9 18 -135 40 -281 22 -146 40 -270 40 -275 0 -5 15
-9 34 -9 41 0 37 -11 71 185 15 83 29 157 32 165 6 15 27 -75 58 -252 l17 -98
34 0 c40 0 33 -25 79 285 19 132 37 252 40 268 4 26 3 27 -35 27 -22 0 -40 -3
-40 -7 0 -30 -42 -428 -45 -431 -2 -3 -6 6 -9 19 -5 24 -66 406 -66 414 0 3
-13 5 -28 5 -28 0 -29 -2 -40 -77 -44 -288 -55 -353 -61 -348 -3 3 -15 99 -26
213 l-20 207 -37 3 c-30 3 -38 0 -38 -13z"/>
<path d="M1750 1320 l0 -290 125 0 125 0 0 40 0 40 -85 0 -85 0 0 85 0 85 70
0 70 0 0 35 0 35 -70 0 -70 0 0 90 0 90 85 0 85 0 0 40 0 40 -125 0 -125 0 0
-290z"/>
<path d="M2040 1316 l0 -286 40 0 40 0 0 116 0 115 28 -3 c25 -3 30 -12 67
-115 l40 -113 38 0 c45 0 45 -10 -13 140 l-37 95 28 27 c48 48 62 167 28 242
-21 46 -55 60 -161 64 l-98 4 0 -286z m178 198 c19 -13 22 -24 22 -83 0 -80
-15 -99 -79 -108 l-41 -6 0 107 0 106 38 0 c21 0 48 -7 60 -16z"/>
<path d="M1885 567 c-43 -161 -80 -298 -83 -304 -3 -9 6 -13 27 -13 28 0 32 4
42 45 l11 45 83 0 83 0 11 -45 c10 -41 14 -45 41 -45 17 0 30 3 30 8 0 10
-158 594 -162 598 -2 1 -39 -128 -83 -289z m120 -32 l32 -135 -68 0 c-55 0
-69 3 -69 15 0 26 62 266 67 261 3 -3 20 -66 38 -141z"/>
<path d="M1200 810 l0 -40 50 0 50 0 0 -260 0 -260 30 0 30 0 0 260 0 260 45
0 45 0 0 40 0 40 -125 0 -125 0 0 -40z"/>
<path d="M1520 551 l0 -301 30 0 30 0 0 123 0 122 64 -120 c63 -118 65 -120
101 -123 l37 -3 -20 33 c-90 147 -124 212 -113 216 29 10 71 56 87 97 33 87
-1 196 -70 229 -18 8 -58 18 -89 22 l-57 7 0 -302z m128 219 c12 0 42 -73 42
-103 0 -64 -46 -127 -92 -127 -16 0 -18 12 -18 124 l0 125 32 -10 c18 -5 34
-9 36 -9z"/>
<path d="M2190 550 l0 -300 30 0 30 0 0 89 0 88 45 17 c53 21 100 71 114 123
25 87 4 192 -47 236 -28 25 -89 46 -134 47 l-38 0 0 -300z m105 226 c43 -18
65 -61 65 -126 0 -77 -45 -149 -92 -150 -16 0 -18 13 -18 145 0 80 2 145 5
145 3 0 21 -6 40 -14z"/>
<path d="M0 65 l0 -65 1280 0 1280 0 0 65 0 65 -1280 0 -1280 0 0 -65z"/>
</g>
</svg>
